<svg width="40" height="48" viewBox="0 0 40 48" fill="none" xmlns="http://www.w3.org/2000/svg">
<path d="M18.9583 47.5312V40.0312C8.52084 39.4896 0.208344 30.8229 0.208344 20.2604C0.208344 9.34375 9.08334 0.46875 20 0.46875C30.9167 0.46875 39.7917 9.34375 39.7917 20.2604C39.7917 30.5729 32.625 40.9479 21.9375 46.0937L18.9583 47.5312ZM20 4.63542C11.375 4.63542 4.37501 11.6354 4.37501 20.2604C4.37501 28.8854 11.375 35.8854 20 35.8854H23.125V40.6771C30.7083 35.8854 35.625 28.0104 35.625 20.2604C35.625 11.6354 28.625 4.63542 20 4.63542ZM17.9167 28.5937H22.0833V32.7604H17.9167V28.5937ZM22.0833 25.4687H17.9167C17.9167 18.6979 24.1667 19.2187 24.1667 15.0521C24.1667 12.7604 22.2917 10.8854 20 10.8854C17.7083 10.8854 15.8333 12.7604 15.8333 15.0521H11.6667C11.6667 10.4479 15.3958 6.71875 20 6.71875C24.6042 6.71875 28.3333 10.4479 28.3333 15.0521C28.3333 20.2604 22.0833 20.7812 22.0833 25.4687Z" fill="#0148FF"/>
</svg>
