<svg width="38" height="38" viewBox="0 0 38 38" fill="none" xmlns="http://www.w3.org/2000/svg">
<path d="M0.25 12.7498V25.2498H8.58333L19 35.6665V2.33317L8.58333 12.7498H0.25ZM14.8333 12.3957V25.604L10.3125 21.0832H4.41667V16.9165H10.3125L14.8333 12.3957ZM28.375 18.9998C28.375 15.3123 26.25 12.1457 23.1667 10.604V27.3748C26.25 25.854 28.375 22.6873 28.375 18.9998ZM23.1667 0.729004V5.02067C29.1875 6.81234 33.5833 12.3957 33.5833 18.9998C33.5833 25.604 29.1875 31.1873 23.1667 32.979V37.2707C31.5208 35.3748 37.75 27.9165 37.75 18.9998C37.75 10.0832 31.5208 2.62484 23.1667 0.729004Z" fill="#0148FF"/>
</svg>
